<svg width="236" height="48" viewBox="0 0 236 48" fill="none" xmlns="http://www.w3.org/2000/svg">
<path d="M64.3516 18.9436C64.3516 19.5404 64.7485 20.0267 65.5369 20.4025C66.3307 20.7782 67.29 21.1043 68.4256 21.3916C69.5613 21.679 70.6969 22.0382 71.8326 22.4692C72.9682 22.9058 73.933 23.6297 74.7213 24.6465C75.5151 25.6634 75.9066 26.9399 75.9066 28.4651C75.9066 30.7695 75.0466 32.5434 73.3321 33.7868C71.612 35.0301 69.4731 35.6491 66.8985 35.6491C62.2953 35.6491 59.1585 33.8697 57.4881 30.3053L62.5048 27.4759C63.1608 29.4211 64.6273 30.3937 66.8985 30.3937C68.9604 30.3937 69.9913 29.7472 69.9913 28.4596C69.9913 27.8628 69.5943 27.3765 68.806 27.0007C68.0121 26.6249 67.0529 26.2878 65.9173 25.9894C64.7816 25.691 63.646 25.3152 62.5103 24.8676C61.3747 24.42 60.4099 23.7071 59.6216 22.7345C58.8277 21.7619 58.4363 20.5406 58.4363 19.0762C58.4363 16.8602 59.2522 15.114 60.8785 13.843C62.5048 12.5719 64.5335 11.9309 66.9537 11.9309C68.7729 11.9309 70.4323 12.3454 71.9263 13.1688C73.4203 13.9922 74.6 15.1692 75.4655 16.6944L70.537 19.3912C69.8204 17.866 68.6241 17.0978 66.9537 17.0978C66.2039 17.0978 65.5865 17.2636 65.0958 17.5897C64.6052 17.9212 64.3571 18.3689 64.3571 18.938L64.3516 18.9436Z" fill="#FF6501"/>
<path d="M94.4242 12.5664H100.207V35.0246H94.4242V32.5103C93.0185 34.6047 90.7968 35.6546 87.7482 35.6546C85.3005 35.6546 83.2717 34.8312 81.673 33.1844C80.0743 31.5377 79.2749 29.2609 79.2749 26.3541V12.5664H85.0579V25.6413C85.0579 27.1389 85.4603 28.2828 86.2652 29.0785C87.0701 29.8743 88.1451 30.2666 89.4902 30.2666C90.9842 30.2666 92.1805 29.8025 93.0736 28.8741C93.9667 27.9457 94.4187 26.5531 94.4187 24.6963V12.5664H94.4242Z" fill="#FF6501"/>
<path d="M117.953 11.9365C120.401 11.9365 122.43 12.7599 124.028 14.4066C125.627 16.0534 126.426 18.3302 126.426 21.2369V35.0302H120.643V21.9553C120.643 20.4578 120.241 19.3139 119.436 18.5181C118.631 17.7223 117.556 17.33 116.211 17.33C114.717 17.33 113.521 17.7942 112.628 18.7226C111.729 19.6509 111.283 21.0435 111.283 22.9003V35.0302H105.5V12.5664H111.283V15.0808C112.688 12.9864 114.91 11.9365 117.959 11.9365H117.953Z" fill="#FF6501"/>
<path d="M148.34 3.58093H154.123V35.0246H148.34V32.3721C146.637 34.5604 144.216 35.6546 141.08 35.6546C137.943 35.6546 135.484 34.5107 133.351 32.2174C131.212 29.924 130.148 27.1167 130.148 23.7955C130.148 20.4743 131.217 17.6615 133.351 15.3737C135.484 13.0804 138.064 11.9364 141.08 11.9364C144.095 11.9364 146.637 13.0306 148.34 15.2134V3.58093ZM137.695 28.3546C138.874 29.5372 140.363 30.1285 142.155 30.1285C143.946 30.1285 145.424 29.5372 146.592 28.3546C147.756 27.172 148.34 25.6523 148.34 23.7955C148.34 21.9387 147.756 20.4191 146.592 19.2365C145.429 18.0539 143.946 17.4626 142.155 17.4626C140.363 17.4626 138.874 18.0539 137.695 19.2365C136.515 20.4191 135.925 21.9387 135.925 23.7955C135.925 25.6523 136.515 27.172 137.695 28.3546Z" fill="#FF6501"/>
<path d="M165.187 16.4292C165.728 14.9924 166.615 13.9148 167.856 13.1964C169.096 12.478 170.48 12.1188 172.001 12.1188V18.5899C170.237 18.3799 168.66 18.7391 167.271 19.6675C165.882 20.5959 165.187 22.1377 165.187 24.2929V35.0302H159.404V12.5664H165.187V16.4292Z" fill="#FF6501"/>
<path d="M179.394 26.1773C180.171 28.9901 182.277 30.3993 185.712 30.3993C187.922 30.3993 189.593 29.6532 190.728 28.1557L195.387 30.8524C193.176 34.0576 189.918 35.6602 185.618 35.6602C181.913 35.6602 178.942 34.5383 176.698 32.2892C174.46 30.0456 173.335 27.2107 173.335 23.8011C173.335 20.3914 174.438 17.5952 176.654 15.335C178.865 13.0748 181.704 11.942 185.171 11.942C188.457 11.942 191.169 13.0804 193.303 15.3571C195.436 17.6339 196.506 20.4467 196.506 23.8011C196.506 24.5471 196.429 25.3429 196.28 26.1828H179.383L179.394 26.1773ZM179.306 21.6846H190.734C190.403 20.1593 189.725 19.021 188.694 18.2694C187.663 17.5234 186.489 17.1476 185.177 17.1476C183.622 17.1476 182.338 17.5455 181.323 18.3357C180.309 19.1315 179.637 20.2478 179.306 21.6846Z" fill="#FF6501"/>
<path d="M204.985 18.9436C204.985 19.5404 205.382 20.0267 206.17 20.4025C206.964 20.7782 207.923 21.1043 209.059 21.3916C210.194 21.679 211.33 22.0382 212.466 22.4692C213.601 22.9058 214.566 23.6297 215.354 24.6465C216.148 25.6634 216.54 26.9399 216.54 28.4651C216.54 30.7695 215.68 32.5434 213.965 33.7868C212.245 35.0301 210.106 35.6491 207.532 35.6491C202.928 35.6491 199.792 33.8697 198.121 30.3053L203.138 27.4759C203.794 29.4211 205.26 30.3937 207.532 30.3937C209.593 30.3937 210.624 29.7472 210.624 28.4596C210.624 27.8628 210.227 27.3765 209.439 27.0007C208.645 26.6249 207.686 26.2878 206.55 25.9894C205.415 25.691 204.279 25.3152 203.143 24.8676C202.008 24.42 201.043 23.7071 200.255 22.7345C199.461 21.7619 199.069 20.5406 199.069 19.0762C199.069 16.8602 199.885 15.114 201.512 13.843C203.138 12.5719 205.167 11.9309 207.587 11.9309C209.406 11.9309 211.065 12.3454 212.559 13.1688C214.053 13.9922 215.233 15.1692 216.099 16.6944L211.17 19.3912C210.453 17.866 209.257 17.0978 207.587 17.0978C206.837 17.0978 206.22 17.2636 205.729 17.5897C205.238 17.9212 204.99 18.3689 204.99 18.938L204.985 18.9436Z" fill="#FF6501"/>
<path d="M224.434 18.9436C224.434 19.5404 224.831 20.0267 225.619 20.4025C226.413 20.7782 227.372 21.1043 228.508 21.3916C229.644 21.679 230.779 22.0382 231.915 22.4692C233.051 22.9058 234.015 23.6297 234.804 24.6465C235.598 25.6634 235.989 26.9399 235.989 28.4651C235.989 30.7695 235.129 32.5434 233.414 33.7868C231.694 35.0301 229.555 35.6491 226.981 35.6491C222.378 35.6491 219.241 33.8697 217.57 30.3053L222.587 27.4759C223.243 29.4211 224.71 30.3937 226.981 30.3937C229.043 30.3937 230.074 29.7472 230.074 28.4596C230.074 27.8628 229.677 27.3765 228.888 27.0007C228.095 26.6249 227.135 26.2878 226 25.9894C224.864 25.691 223.728 25.3152 222.593 24.8676C221.457 24.42 220.492 23.7071 219.704 22.7345C218.91 21.7619 218.519 20.5406 218.519 19.0762C218.519 16.8602 219.335 15.114 220.961 13.843C222.587 12.5719 224.616 11.9309 227.036 11.9309C228.855 11.9309 230.515 12.3454 232.009 13.1688C233.503 13.9922 234.682 15.1692 235.548 16.6944L230.619 19.3912C229.903 17.866 228.706 17.0978 227.036 17.0978C226.286 17.0978 225.669 17.2636 225.178 17.5897C224.688 17.9212 224.44 18.3689 224.44 18.938L224.434 18.9436Z" fill="#FF6501"/>
<path d="M40.8723 31.0292L47.8847 24L40.8723 16.9708V7.02924H30.9547L23.9423 0L16.93 7.02924H7.01236V16.9708L0 24L7.01236 31.0292V40.9708H16.93L23.9423 48L30.9547 40.9708H40.8723V31.0292Z" fill="#FF6501"/>
</svg>
