<svg width="98" height="20" viewBox="0 0 98 20" fill="none" xmlns="http://www.w3.org/2000/svg">
<g clip-path="url(#clip0_40_70)">
<path d="M26.5565 7.89313C26.5565 8.14181 26.7203 8.34444 27.0456 8.50101C27.3733 8.65758 27.7691 8.79343 28.2378 8.91317C28.7064 9.0329 29.1751 9.18257 29.6437 9.36217C30.1124 9.54407 30.5105 9.8457 30.8358 10.2694C31.1634 10.693 31.325 11.2249 31.325 11.8604C31.325 12.8206 30.9701 13.5597 30.2625 14.0778C29.5527 14.5959 28.67 14.8538 27.6076 14.8538C25.7079 14.8538 24.4135 14.1123 23.7241 12.6272L25.7944 11.4483C26.0651 12.2588 26.6703 12.664 27.6076 12.664C28.4584 12.664 28.8839 12.3946 28.8839 11.8581C28.8839 11.6095 28.7201 11.4068 28.3947 11.2503C28.0671 11.0937 27.6713 10.9532 27.2026 10.8289C26.734 10.7046 26.2653 10.548 25.7967 10.3615C25.328 10.175 24.9299 9.87794 24.6046 9.47269C24.277 9.06744 24.1154 8.55857 24.1154 7.9484C24.1154 7.02507 24.4521 6.29746 25.1233 5.76788C25.7944 5.23829 26.6316 4.97119 27.6303 4.97119C28.3811 4.97119 29.0659 5.14388 29.6824 5.48696C30.2989 5.83004 30.7858 6.32049 31.143 6.95599L29.1091 8.07964C28.8133 7.44414 28.3197 7.12408 27.6303 7.12408C27.3209 7.12408 27.0661 7.19316 26.8636 7.32901C26.6612 7.46716 26.5588 7.65367 26.5588 7.89083L26.5565 7.89313Z" fill="white"/>
<path d="M38.9666 5.23596H41.3531V14.5935H38.9666V13.5459C38.3865 14.4186 37.4696 14.856 36.2115 14.856C35.2014 14.856 34.3642 14.513 33.7045 13.8268C33.0447 13.1406 32.7148 12.192 32.7148 10.9808V5.23596H35.1013V10.6838C35.1013 11.3078 35.2674 11.7844 35.5996 12.116C35.9317 12.4476 36.3754 12.611 36.9305 12.611C37.547 12.611 38.0407 12.4176 38.4092 12.0308C38.7778 11.644 38.9643 11.0637 38.9643 10.2901V5.23596H38.9666Z" fill="white"/>
<path d="M48.6764 4.97351C49.6865 4.97351 50.5237 5.31659 51.1835 6.00275C51.8432 6.68891 52.1731 7.63757 52.1731 8.84871V14.5959H49.7866V9.14804C49.7866 8.52405 49.6205 8.04742 49.2884 7.71585C48.9562 7.38429 48.5126 7.22081 47.9575 7.22081C47.3409 7.22081 46.8473 7.41422 46.4787 7.80105C46.1079 8.18788 45.9236 8.76812 45.9236 9.54178V14.5959H43.5371V5.236H45.9236V6.28367C46.5037 5.411 47.4206 4.97351 48.6787 4.97351H48.6764Z" fill="white"/>
<path d="M61.2165 1.49207H63.603V14.5936H61.2165V13.4884C60.5136 14.4002 59.5148 14.8561 58.2203 14.8561C56.9259 14.8561 55.9112 14.3795 55.0308 13.4239C54.1481 12.4684 53.709 11.2987 53.709 9.91482C53.709 8.53098 54.1503 7.35898 55.0308 6.40572C55.9112 5.45016 56.9759 4.97353 58.2203 4.97353C59.4648 4.97353 60.5136 5.42944 61.2165 6.33895V1.49207ZM56.8235 11.8144C57.3103 12.3072 57.9246 12.5535 58.664 12.5535C59.4034 12.5535 60.0131 12.3072 60.4954 11.8144C60.9754 11.3217 61.2165 10.6885 61.2165 9.91482C61.2165 9.14116 60.9754 8.50795 60.4954 8.01521C60.0153 7.52246 59.4034 7.27609 58.664 7.27609C57.9246 7.27609 57.3103 7.52246 56.8235 8.01521C56.3366 8.50795 56.0932 9.14116 56.0932 9.91482C56.0932 10.6885 56.3366 11.3217 56.8235 11.8144Z" fill="white"/>
<path d="M68.1687 6.84555C68.3917 6.24689 68.7579 5.79789 69.2698 5.49856C69.7817 5.19923 70.3527 5.04956 70.9806 5.04956V7.74585C70.2526 7.65836 69.602 7.80802 69.0287 8.19485C68.4554 8.58168 68.1687 9.22409 68.1687 10.1221V14.596H65.7822V5.23607H68.1687V6.84555Z" fill="white"/>
<path d="M74.0315 10.9072C74.3523 12.0792 75.2213 12.6664 76.6387 12.6664C77.5509 12.6664 78.2403 12.3555 78.7089 11.7315L80.6313 12.8552C79.719 14.1907 78.3745 14.8584 76.6 14.8584C75.0712 14.8584 73.8449 14.391 72.919 13.4538C71.9953 12.519 71.5312 11.3378 71.5312 9.91712C71.5312 8.49644 71.9863 7.33134 72.9008 6.3896C73.8131 5.44785 74.9847 4.97583 76.4157 4.97583C77.7716 4.97583 78.8909 5.45016 79.7714 6.39881C80.6518 7.34746 81.0932 8.51946 81.0932 9.91712C81.0932 10.228 81.0613 10.5595 80.9999 10.9095H74.0269L74.0315 10.9072ZM73.9951 9.03524H78.7112C78.5747 8.39973 78.2949 7.9254 77.8695 7.61226C77.444 7.30141 76.9594 7.14484 76.418 7.14484C75.7764 7.14484 75.2464 7.31062 74.8278 7.63989C74.4091 7.97146 74.1316 8.43657 73.9951 9.03524Z" fill="white"/>
<path d="M84.5922 7.89313C84.5922 8.14181 84.756 8.34444 85.0813 8.50101C85.4089 8.65758 85.8048 8.79343 86.2734 8.91317C86.7421 9.0329 87.2107 9.18257 87.6794 9.36217C88.148 9.54407 88.5462 9.8457 88.8715 10.2694C89.1991 10.693 89.3606 11.2249 89.3606 11.8604C89.3606 12.8206 89.0057 13.5597 88.2982 14.0778C87.5884 14.5959 86.7057 14.8538 85.6432 14.8538C83.7436 14.8538 82.4491 14.1123 81.7598 12.6272L83.83 11.4483C84.1008 12.2588 84.7059 12.664 85.6432 12.664C86.4941 12.664 86.9195 12.3946 86.9195 11.8581C86.9195 11.6095 86.7557 11.4068 86.4304 11.2503C86.1028 11.0937 85.7069 10.9532 85.2383 10.8289C84.7696 10.7046 84.301 10.548 83.8323 10.3615C83.3637 10.175 82.9655 9.87794 82.6402 9.47269C82.3126 9.06744 82.1511 8.55857 82.1511 7.9484C82.1511 7.02507 82.4878 6.29746 83.1589 5.76788C83.83 5.23829 84.6672 4.97119 85.666 4.97119C86.4167 4.97119 87.1015 5.14388 87.7181 5.48696C88.3346 5.83004 88.8214 6.32049 89.1786 6.95599L87.1447 8.07964C86.849 7.44414 86.3553 7.12408 85.666 7.12408C85.3566 7.12408 85.1018 7.19316 84.8993 7.32901C84.6968 7.46716 84.5944 7.65367 84.5944 7.89083L84.5922 7.89313Z" fill="white"/>
<path d="M92.6185 7.89313C92.6185 8.14181 92.7823 8.34444 93.1077 8.50101C93.4353 8.65758 93.8311 8.79343 94.2998 8.91317C94.7684 9.0329 95.2371 9.18257 95.7057 9.36217C96.1744 9.54407 96.5725 9.8457 96.8978 10.2694C97.2254 10.693 97.387 11.2249 97.387 11.8604C97.387 12.8206 97.0321 13.5597 96.3245 14.0778C95.6147 14.5959 94.732 14.8538 93.6696 14.8538C91.77 14.8538 90.4755 14.1123 89.7861 12.6272L91.8564 11.4483C92.1271 12.2588 92.7323 12.664 93.6696 12.664C94.5204 12.664 94.9459 12.3946 94.9459 11.8581C94.9459 11.6095 94.7821 11.4068 94.4567 11.2503C94.1291 11.0937 93.7333 10.9532 93.2646 10.8289C92.796 10.7046 92.3273 10.548 91.8587 10.3615C91.39 10.175 90.9919 9.87794 90.6666 9.47269C90.339 9.06744 90.1774 8.55857 90.1774 7.9484C90.1774 7.02507 90.5141 6.29746 91.1853 5.76788C91.8564 5.23829 92.6936 4.97119 93.6923 4.97119C94.4431 4.97119 95.1279 5.14388 95.7444 5.48696C96.3609 5.83004 96.8478 6.32049 97.205 6.95599L95.1711 8.07964C94.8753 7.44414 94.3817 7.12408 93.6923 7.12408C93.3829 7.12408 93.1281 7.19316 92.9257 7.32901C92.7232 7.46716 92.6208 7.65367 92.6208 7.89083L92.6185 7.89313Z" fill="white"/>
<path d="M16.867 12.9289L19.7608 10L16.867 7.07115V2.92885H12.7742L9.88041 0L6.98658 2.92885H2.89382V7.07115L0 10L2.89382 12.9289V17.0711H6.98658L9.88041 20L12.7742 17.0711H16.867V12.9289Z" fill="white"/>
</g>
<defs>
<clipPath id="clip0_40_70">
<rect width="97.3913" height="20" fill="white"/>
</clipPath>
</defs>
</svg>
